<?xml version="1.0" encoding="utf-8"?>
<!-- Generator: Adobe Illustrator 17.0.0, SVG Export Plug-In . SVG Version: 6.00 Build 0)  -->
<!DOCTYPE svg PUBLIC "-//W3C//DTD SVG 1.1//EN" "http://www.w3.org/Graphics/SVG/1.1/DTD/svg11.dtd">
<svg version="1.1" id="Layer_1" xmlns="http://www.w3.org/2000/svg" xmlns:xlink="http://www.w3.org/1999/xlink" x="0px" y="0px"
	 width="896.5px" height="310px" viewBox="0 0 896.5 310" enable-background="new 0 0 896.5 310" xml:space="preserve">
<path opacity="0.9" fill="#00D0BB" d="M716.824-0.025h176.61v78.643h-80.89v33.255h79.542v74.599h-79.542v34.603h84.036v78.643
	H716.824V-0.025z"/>
<path opacity="0.9" fill="#E74900" d="M430.772-0.025h79.101l78.202,115.056L665.827-0.025h79.101V299.75h-95.73V191.885
	l-61.124,89.887l-61.573-89.887V299.75h-95.73V-0.025z"/>
<path opacity="0.9" fill="#FFD900" d="M341.028,310.062c-19.057,0-36.298-2.424-51.725-7.259
	c-15.427-4.835-28.585-12.095-39.474-21.779c-10.89-9.677-19.284-21.928-25.182-36.752c-5.898-14.817-8.848-32.214-8.848-52.179
	V-0.286h96.644V188.01c0,10.592,2.191,18.681,6.579,24.274c4.381,5.6,11.719,8.394,22.006,8.394c10.28,0,17.617-2.794,22.006-8.394
	c4.381-5.594,6.578-13.683,6.578-24.274V-0.286h97.098v192.38c0,19.964-2.949,37.361-8.848,52.179
	c-5.899,14.824-14.371,27.074-25.409,36.752c-11.045,9.684-24.274,16.944-39.701,21.779
	C377.326,307.638,360.085,310.062,341.028,310.062z"/>
<path opacity="0.9" fill="#00FF99" d="M106.51-0.265l51.279,131.6l51.732-131.6h105.734l-117.986,302.68h-78.507L0.776-0.265H106.51
	z"/>
</svg>
